<svg width="4745" height="3475" xmlns="http://www.w3.org/2000/svg" xmlns:xlink="http://www.w3.org/1999/xlink" xml:space="preserve" overflow="hidden"><g transform="translate(-2685 -4535)"><rect x="2734.5" y="7191.5" width="63" height="64" stroke="#77CFB6" stroke-width="4.58333" stroke-miterlimit="8" fill="#FFFFFF"/><rect x="2797.5" y="7191.5" width="64" height="64" stroke="#77CFB6" stroke-width="4.58333" stroke-miterlimit="8" fill="#FFFFFF"/><rect x="2861.5" y="7191.5" width="64.0002" height="64" stroke="#77CFB6" stroke-width="4.58333" stroke-miterlimit="8" fill="#FFFFFF"/><rect x="2925.5" y="7191.5" width="64" height="64" stroke="#77CFB6" stroke-width="4.58333" stroke-miterlimit="8" fill="#FFFFFF"/><rect x="2989.5" y="7191.5" width="64" height="64" stroke="#77CFB6" stroke-width="4.58333" stroke-miterlimit="8" fill="#FFFFFF"/><rect x="3054.5" y="7191.5" width="64" height="64" stroke="#77CFB6" stroke-width="4.58333" stroke-miterlimit="8" fill="#FFFFFF"/><rect x="3118.5" y="7191.5" width="64" height="64" stroke="#77CFB6" stroke-width="4.58333" stroke-miterlimit="8" fill="#FFFFFF"/><rect x="3182.5" y="7191.5" width="64" height="64" stroke="#77CFB6" stroke-width="4.58333" stroke-miterlimit="8" fill="#FFFFFF"/><rect x="3246.5" y="7191.5" width="64.0002" height="64" stroke="#77CFB6" stroke-width="4.58333" stroke-miterlimit="8" fill="#FFFFFF"/><rect x="3310.5" y="7191.5" width="63" height="64" stroke="#77CFB6" stroke-width="4.58333" stroke-miterlimit="8" fill="#FFFFFF"/><rect x="3373.5" y="7191.5" width="64" height="64" stroke="#77CFB6" stroke-width="4.58333" stroke-miterlimit="8" fill="#FFFFFF"/><rect x="3437.5" y="7191.5" width="64" height="64" stroke="#77CFB6" stroke-width="4.58333" stroke-miterlimit="8" fill="#FFFFFF"/><text font-family="Times New Roman,Times New Roman_MSFontService,sans-serif" font-weight="400" font-size="110" transform="matrix(1 0 0 1 2770.6 7385)">Flow value (X)</text><rect x="2733.5" y="7668.5" width="64" height="64.0005" stroke="#7030A0" stroke-width="4.58333" stroke-miterlimit="8" fill="#FFFFFF"/><rect x="2797.5" y="7668.5" width="64" height="64.0005" stroke="#7030A0" stroke-width="4.58333" stroke-miterlimit="8" fill="#FFFFFF"/><rect x="2861.5" y="7668.5" width="63.0002" height="64.0005" stroke="#7030A0" stroke-width="4.58333" stroke-miterlimit="8" fill="#FFFFFF"/><rect x="2924.5" y="7668.5" width="64" height="64.0005" stroke="#7030A0" stroke-width="4.58333" stroke-miterlimit="8" fill="#FFFFFF"/><rect x="2988.5" y="7668.5" width="64" height="64.0005" stroke="#7030A0" stroke-width="4.58333" stroke-miterlimit="8" fill="#FFFFFF"/><rect x="3052.5" y="7668.5" width="64" height="64.0005" stroke="#7030A0" stroke-width="4.58333" stroke-miterlimit="8" fill="#FFFFFF"/><rect x="3116.5" y="7668.5" width="64" height="64.0005" stroke="#7030A0" stroke-width="4.58333" stroke-miterlimit="8" fill="#FFFFFF"/><rect x="3180.5" y="7668.5" width="63.0002" height="64.0005" stroke="#7030A0" stroke-width="4.58333" stroke-miterlimit="8" fill="#FFFFFF"/><rect x="3243.5" y="7668.5" width="64" height="64.0005" stroke="#7030A0" stroke-width="4.58333" stroke-miterlimit="8" fill="#FFFFFF"/><rect x="3307.5" y="7668.5" width="64" height="64.0005" stroke="#7030A0" stroke-width="4.58333" stroke-miterlimit="8" fill="#FFFFFF"/><rect x="3371.5" y="7668.5" width="64" height="64.0005" stroke="#7030A0" stroke-width="4.58333" stroke-miterlimit="8" fill="#FFFFFF"/><rect x="3435.5" y="7668.5" width="64" height="64.0005" stroke="#7030A0" stroke-width="4.58333" stroke-miterlimit="8" fill="#FFFFFF"/><text font-family="Times New Roman,Times New Roman_MSFontService,sans-serif" font-weight="400" font-size="110" transform="matrix(1 0 0 1 2751.11 7917)">E</text><text font-family="Times New Roman,Times New Roman_MSFontService,sans-serif" font-weight="400" font-size="110" transform="matrix(1 0 0 1 2818.14 7917)">vent stamp (E) </text><rect x="4242.5" y="4538.5" width="2390" height="489" stroke="#4472C4" stroke-width="6.875" stroke-miterlimit="8" stroke-dasharray="55 20.625" fill="none"/><rect x="4853.5" y="4773.5" width="64" height="64" stroke="#77CFB6" stroke-width="4.58333" stroke-miterlimit="8" stroke-dasharray="18.3333 13.75" fill="#FFFFFF"/><rect x="4916.5" y="4773.5" width="64" height="64" stroke="#77CFB6" stroke-width="4.58333" stroke-miterlimit="8" stroke-dasharray="18.3333 13.75" fill="#FFFFFF"/><rect x="4980.5" y="4773.5" width="64" height="64" stroke="#77CFB6" stroke-width="4.58333" stroke-miterlimit="8" fill="#FFFFFF"/><rect x="5044.5" y="4773.5" width="64" height="64" stroke="#77CFB6" stroke-width="4.58333" stroke-miterlimit="8" fill="#FFFFFF"/><rect x="5108.5" y="4773.5" width="64" height="64" stroke="#77CFB6" stroke-width="4.58333" stroke-miterlimit="8" fill="#FFFFFF"/><rect x="5172.5" y="4773.5" width="64" height="64" stroke="#77CFB6" stroke-width="4.58333" stroke-miterlimit="8" fill="#FFFFFF"/><rect x="5236.5" y="4773.5" width="63.0005" height="64" stroke="#77CFB6" stroke-width="4.58333" stroke-miterlimit="8" fill="#FFFFFF"/><rect x="5299.5" y="4773.5" width="64" height="64" stroke="#77CFB6" stroke-width="4.58333" stroke-miterlimit="8" fill="#FFFFFF"/><rect x="5363.5" y="4773.5" width="64" height="64" stroke="#77CFB6" stroke-width="4.58333" stroke-miterlimit="8" fill="#FFFFFF"/><rect x="5427.5" y="4773.5" width="64" height="64" stroke="#77CFB6" stroke-width="4.58333" stroke-miterlimit="8" fill="#FFFFFF"/><rect x="5491.5" y="4773.5" width="64" height="64" stroke="#77CFB6" stroke-width="4.58333" stroke-miterlimit="8" fill="#FFFFFF"/><rect x="5555.5" y="4773.5" width="64.0005" height="64" stroke="#FFC000" stroke-width="4.58333" stroke-miterlimit="8" fill="#FFFFFF"/><rect x="5619.5" y="4773.5" width="64" height="64" stroke="#FFC000" stroke-width="4.58333" stroke-miterlimit="8" fill="#FFFFFF"/><text font-family="Times New Roman,Times New Roman_MSFontService,sans-serif" font-weight="400" font-size="110" transform="matrix(1 0 0 1 5229.65 4700)">Concatenate prediction values</text><text font-family="Times New Roman,Times New Roman_MSFontService,sans-serif" font-weight="400" font-size="110" transform="matrix(1 0 0 1 4379.26 4969)">Drop initial values</text><path d="M3099.85 7034.91 3099.85 4781.85 4219.92 4781.85 4219.92 4784.15 3101 4784.15 3102.15 4783 3102.15 7034.91ZM4215.34 4769.25 4242.84 4783 4215.34 4796.75Z"/><path d="M7145.34 6857 7145.34 6875.33 7143.05 6875.33 7143.05 6857ZM7145.34 6882.21 7145.34 6900.54 7143.05 6900.54 7143.05 6882.21ZM7145.34 6907.42 7145.34 6925.75 7143.05 6925.75 7143.05 6907.42ZM7145.34 6932.62 7145.34 6950.96 7143.05 6950.96 7143.05 6932.62ZM7145.34 6957.83 7145.34 6976.17 7143.05 6976.17 7143.05 6957.83ZM7145.34 6983.04 7145.34 7001.38 7143.05 7001.38 7143.05 6983.04ZM7145.34 7008.25 7145.34 7026.58 7143.05 7026.58 7143.05 7008.25ZM7145.34 7033.46 7145.34 7051.79 7143.05 7051.79 7143.05 7033.46ZM7145.34 7058.67 7145.34 7077 7143.05 7077 7143.05 7058.67ZM7145.34 7083.88 7145.34 7102.21 7143.05 7102.21 7143.05 7083.88ZM7145.34 7109.08 7145.34 7127.42 7143.05 7127.42 7143.05 7109.08ZM7145.34 7134.29 7145.34 7152.62 7143.05 7152.62 7143.05 7134.29ZM7145.34 7159.5 7145.34 7177.83 7143.05 7177.83 7143.05 7159.5ZM7145.34 7184.71 7145.34 7203.04 7143.05 7203.04 7143.05 7184.71ZM7145.34 7209.92 7145.34 7228.25 7143.05 7228.25 7143.05 7209.92ZM7145.34 7235.12 7145.34 7253.46 7143.05 7253.46 7143.05 7235.12ZM7145.34 7260.33 7145.34 7278.67 7143.05 7278.67 7143.05 7260.33ZM7145.34 7285.54 7145.34 7303.88 7143.05 7303.88 7143.05 7285.54ZM7145.34 7310.75 7145.34 7329.08 7143.05 7329.08 7143.05 7310.75ZM7145.34 7335.96 7145.34 7354.29 7143.05 7354.29 7143.05 7335.96ZM7145.34 7361.17 7145.34 7379.5 7143.05 7379.5 7143.05 7361.17ZM7145.34 7386.38 7145.34 7404.71 7143.05 7404.71 7143.05 7386.38ZM7145.34 7411.58 7145.34 7429.92 7143.05 7429.92 7143.05 7411.58ZM7145.34 7436.79 7145.34 7455.12 7143.05 7455.12 7143.05 7436.79ZM7145.34 7462 7145.34 7480.33 7143.05 7480.33 7143.05 7462ZM7145.34 7487.21 7145.34 7505.54 7143.05 7505.54 7143.05 7487.21ZM7145.34 7512.42 7145.34 7530.75 7143.05 7530.75 7143.05 7512.42ZM7145.34 7537.62 7145.34 7555.96 7143.05 7555.96 7143.05 7537.62ZM7145.34 7562.83 7145.34 7581.17 7143.05 7581.17 7143.05 7562.83ZM7145.34 7588.04 7145.34 7606.38 7143.05 7606.38 7143.05 7588.04ZM7145.34 7613.25 7145.34 7631.58 7143.05 7631.58 7143.05 7613.25ZM7145.34 7638.46 7145.34 7656.79 7143.05 7656.79 7143.05 7638.46ZM7145.34 7663.67 7145.34 7682 7143.05 7682 7143.05 7663.67ZM7145.34 7688.88 7145.34 7707.21 7143.05 7707.21 7143.05 7688.88ZM7145.34 7714.08 7145.34 7732.42 7143.05 7732.42 7143.05 7714.08ZM7145.34 7739.29 7145.34 7757.62 7143.05 7757.62 7143.05 7739.29ZM7145.34 7764.5 7145.34 7782.83 7143.05 7782.83 7143.05 7764.5ZM7145.34 7789.71 7145.34 7808.04 7143.05 7808.04 7143.05 7789.71ZM7145.34 7814.92 7145.34 7833.25 7143.05 7833.25 7143.05 7814.92ZM7145.34 7840.12 7145.34 7847.42 7132.01 7847.42 7132.01 7845.13 7144.19 7845.13 7143.05 7846.27 7143.05 7840.12ZM7125.13 7847.42 7106.8 7847.42 7106.8 7845.13 7125.13 7845.13ZM7099.92 7847.42 7081.59 7847.42 7081.59 7845.13 7099.92 7845.13ZM7074.72 7847.42 7056.38 7847.42 7056.38 7845.13 7074.72 7845.13ZM7049.51 7847.42 7031.17 7847.42 7031.17 7845.13 7049.51 7845.13ZM7024.3 7847.42 7005.97 7847.42 7005.97 7845.13 7024.3 7845.13ZM6999.09 7847.42 6980.76 7847.42 6980.76 7845.13 6999.09 7845.13ZM6973.88 7847.42 6955.55 7847.42 6955.55 7845.13 6973.88 7845.13ZM6948.67 7847.42 6930.34 7847.42 6930.34 7845.13 6948.67 7845.13ZM6923.47 7847.42 6905.13 7847.42 6905.13 7845.13 6923.47 7845.13ZM6898.26 7847.42 6879.92 7847.42 6879.92 7845.13 6898.26 7845.13ZM6873.05 7847.42 6854.72 7847.42 6854.72 7845.13 6873.05 7845.13ZM6847.84 7847.42 6829.51 7847.42 6829.51 7845.13 6847.84 7845.13ZM6822.63 7847.42 6804.3 7847.42 6804.3 7845.13 6822.63 7845.13ZM6797.42 7847.42 6779.09 7847.42 6779.09 7845.13 6797.42 7845.13ZM6772.22 7847.42 6753.88 7847.42 6753.88 7845.13 6772.22 7845.13ZM6747.01 7847.42 6728.67 7847.42 6728.67 7845.13 6747.01 7845.13ZM6721.8 7847.42 6703.47 7847.42 6703.47 7845.13 6721.8 7845.13ZM6696.59 7847.42 6678.26 7847.42 6678.26 7845.13 6696.59 7845.13ZM6671.38 7847.42 6653.05 7847.42 6653.05 7845.13 6671.38 7845.13ZM6646.17 7847.42 6627.84 7847.42 6627.84 7845.13 6646.17 7845.13ZM6620.97 7847.42 6602.63 7847.42 6602.63 7845.13 6620.97 7845.13ZM6595.76 7847.42 6577.42 7847.42 6577.42 7845.13 6595.76 7845.13ZM6570.55 7847.42 6552.22 7847.42 6552.22 7845.13 6570.55 7845.13ZM6545.34 7847.42 6527.01 7847.42 6527.01 7845.13 6545.34 7845.13ZM6520.13 7847.42 6501.8 7847.42 6501.8 7845.13 6520.13 7845.13ZM6494.92 7847.42 6476.59 7847.42 6476.59 7845.13 6494.92 7845.13ZM6469.72 7847.42 6451.38 7847.42 6451.38 7845.13 6469.72 7845.13ZM6444.51 7847.42 6426.17 7847.42 6426.17 7845.13 6444.51 7845.13ZM6419.3 7847.42 6400.97 7847.42 6400.97 7845.13 6419.3 7845.13ZM6394.09 7847.42 6375.76 7847.42 6375.76 7845.13 6394.09 7845.13ZM6368.88 7847.42 6350.55 7847.42 6350.55 7845.13 6368.88 7845.13ZM6343.67 7847.42 6325.34 7847.42 6325.34 7845.13 6343.67 7845.13ZM6318.47 7847.42 6300.13 7847.42 6300.13 7845.13 6318.47 7845.13ZM6293.26 7847.42 6274.92 7847.42 6274.92 7845.13 6293.26 7845.13ZM6268.05 7847.42 6249.72 7847.42 6249.72 7845.13 6268.05 7845.13ZM6242.84 7847.42 6224.51 7847.42 6224.51 7845.13 6242.84 7845.13ZM6217.63 7847.42 6199.3 7847.42 6199.3 7845.13 6217.63 7845.13ZM6192.42 7847.42 6174.09 7847.42 6174.09 7845.13 6192.42 7845.13ZM6167.22 7847.42 6148.88 7847.42 6148.88 7845.13 6167.22 7845.13ZM6142.01 7847.42 6123.67 7847.42 6123.67 7845.13 6142.01 7845.13ZM6116.8 7847.42 6098.47 7847.42 6098.47 7845.13 6116.8 7845.13ZM6091.59 7847.42 6073.26 7847.42 6073.26 7845.13 6091.59 7845.13ZM6066.38 7847.42 6048.05 7847.42 6048.05 7845.13 6066.38 7845.13ZM6041.17 7847.42 6022.84 7847.42 6022.84 7845.13 6041.17 7845.13ZM6015.97 7847.42 5997.63 7847.42 5997.63 7845.13 6015.97 7845.13ZM5990.76 7847.42 5972.42 7847.42 5972.42 7845.13 5990.76 7845.13ZM5965.55 7847.42 5947.22 7847.42 5947.22 7845.13 5965.55 7845.13ZM5940.34 7847.42 5922.01 7847.42 5922.01 7845.13 5940.34 7845.13ZM5915.13 7847.42 5896.8 7847.42 5896.8 7845.13 5915.13 7845.13ZM5889.92 7847.42 5871.59 7847.42 5871.59 7845.13 5889.92 7845.13ZM5864.72 7847.42 5846.38 7847.42 5846.38 7845.13 5864.72 7845.13ZM5839.51 7847.42 5821.17 7847.42 5821.17 7845.13 5839.51 7845.13ZM5814.3 7847.42 5795.97 7847.42 5795.97 7845.13 5814.3 7845.13ZM5789.09 7847.42 5770.76 7847.42 5770.76 7845.13 5789.09 7845.13ZM5763.88 7847.42 5745.55 7847.42 5745.55 7845.13 5763.88 7845.13ZM5738.67 7847.42 5720.34 7847.42 5720.34 7845.13 5738.67 7845.13ZM5713.47 7847.42 5695.13 7847.42 5695.13 7845.13 5713.47 7845.13ZM5688.26 7847.42 5669.92 7847.42 5669.92 7845.13 5688.26 7845.13ZM5663.05 7847.42 5644.72 7847.42 5644.72 7845.13 5663.05 7845.13ZM5637.84 7847.42 5619.51 7847.42 5619.51 7845.13 5637.84 7845.13ZM5612.63 7847.42 5594.3 7847.42 5594.3 7845.13 5612.63 7845.13ZM5587.42 7847.42 5569.09 7847.42 5569.09 7845.13 5587.42 7845.13ZM5562.22 7847.42 5543.88 7847.42 5543.88 7845.13 5562.22 7845.13ZM5537.01 7847.42 5518.67 7847.42 5518.67 7845.13 5537.01 7845.13ZM5511.8 7847.42 5493.47 7847.42 5493.47 7845.13 5511.8 7845.13ZM5486.59 7847.42 5468.26 7847.42 5468.26 7845.13 5486.59 7845.13ZM5461.38 7847.42 5443.05 7847.42 5443.05 7845.13 5461.38 7845.13ZM5436.17 7847.42 5417.84 7847.42 5417.84 7845.13 5436.17 7845.13ZM5410.97 7847.42 5392.63 7847.42 5392.63 7845.13 5410.97 7845.13ZM5385.76 7847.42 5367.42 7847.42 5367.42 7845.13 5385.76 7845.13ZM5360.55 7847.42 5342.22 7847.42 5342.22 7845.13 5360.55 7845.13ZM5335.34 7847.42 5317.01 7847.42 5317.01 7845.13 5335.34 7845.13ZM5310.13 7847.42 5291.8 7847.42 5291.8 7845.13 5310.13 7845.13ZM5284.92 7847.42 5266.59 7847.42 5266.59 7845.13 5284.92 7845.13ZM5259.72 7847.42 5241.38 7847.42 5241.38 7845.13 5259.72 7845.13ZM5234.51 7847.42 5216.17 7847.42 5216.17 7845.13 5234.51 7845.13ZM5209.3 7847.42 5190.97 7847.42 5190.97 7845.13 5209.3 7845.13ZM5184.09 7847.42 5165.76 7847.42 5165.76 7845.13 5184.09 7845.13ZM5158.88 7847.42 5140.55 7847.42 5140.55 7845.13 5158.88 7845.13ZM5133.67 7847.42 5115.34 7847.42 5115.34 7845.13 5133.67 7845.13ZM5108.47 7847.42 5090.13 7847.42 5090.13 7845.13 5108.47 7845.13ZM5083.26 7847.42 5064.92 7847.42 5064.92 7845.13 5083.26 7845.13ZM5058.05 7847.42 5039.72 7847.42 5039.72 7845.13 5058.05 7845.13ZM5032.84 7847.42 5014.51 7847.42 5014.51 7845.13 5032.84 7845.13ZM5007.63 7847.42 4989.3 7847.42 4989.3 7845.13 5007.63 7845.13ZM4982.42 7847.42 4964.09 7847.42 4964.09 7845.13 4982.42 7845.13ZM4957.22 7847.42 4938.88 7847.42 4938.88 7845.13 4957.22 7845.13ZM4932.01 7847.42 4913.67 7847.42 4913.67 7845.13 4932.01 7845.13ZM4906.8 7847.42 4888.47 7847.42 4888.47 7845.13 4906.8 7845.13ZM4881.59 7847.42 4863.26 7847.42 4863.26 7845.13 4881.59 7845.13ZM4856.38 7847.42 4838.05 7847.42 4838.05 7845.13 4856.38 7845.13ZM4831.17 7847.42 4812.84 7847.42 4812.84 7845.13 4831.17 7845.13ZM4805.97 7847.42 4787.63 7847.42 4787.63 7845.13 4805.97 7845.13ZM4780.76 7847.42 4762.42 7847.42 4762.42 7845.13 4780.76 7845.13ZM4755.55 7847.42 4737.22 7847.42 4737.22 7845.13 4755.55 7845.13ZM4730.34 7847.42 4712.01 7847.42 4712.01 7845.13 4730.34 7845.13ZM4705.13 7847.42 4686.8 7847.42 4686.8 7845.13 4705.13 7845.13ZM4679.92 7847.42 4661.59 7847.42 4661.59 7845.13 4679.92 7845.13ZM4654.72 7847.42 4636.38 7847.42 4636.38 7845.13 4654.72 7845.13ZM4629.51 7847.42 4611.17 7847.42 4611.17 7845.13 4629.51 7845.13ZM4604.3 7847.42 4585.97 7847.42 4585.97 7845.13 4604.3 7845.13ZM4579.09 7847.42 4560.76 7847.42 4560.76 7845.13 4579.09 7845.13ZM4553.88 7847.42 4535.55 7847.42 4535.55 7845.13 4553.88 7845.13ZM4528.67 7847.42 4510.34 7847.42 4510.34 7845.13 4528.67 7845.13ZM4503.47 7847.42 4485.13 7847.42 4485.13 7845.13 4503.47 7845.13ZM4478.26 7847.42 4459.92 7847.42 4459.92 7845.13 4478.26 7845.13ZM4453.05 7847.42 4434.72 7847.42 4434.72 7845.13 4453.05 7845.13ZM4427.84 7847.42 4409.51 7847.42 4409.51 7845.13 4427.84 7845.13ZM4402.63 7847.42 4384.3 7847.42 4384.3 7845.13 4402.63 7845.13ZM4377.42 7847.42 4359.09 7847.42 4359.09 7845.13 4377.42 7845.13ZM4352.22 7847.42 4333.88 7847.42 4333.88 7845.13 4352.22 7845.13ZM4327.01 7847.42 4308.67 7847.42 4308.67 7845.13 4327.01 7845.13ZM4301.8 7847.42 4283.47 7847.42 4283.47 7845.13 4301.8 7845.13ZM4276.59 7847.42 4258.26 7847.42 4258.26 7845.13 4276.59 7845.13ZM4251.38 7847.42 4233.05 7847.42 4233.05 7845.13 4251.38 7845.13ZM4226.17 7847.42 4207.84 7847.42 4207.84 7845.13 4226.17 7845.13ZM4200.97 7847.42 4182.63 7847.42 4182.63 7845.13 4200.97 7845.13ZM4175.76 7847.42 4157.42 7847.42 4157.42 7845.13 4175.76 7845.13ZM4150.55 7847.42 4132.22 7847.42 4132.22 7845.13 4150.55 7845.13ZM4125.34 7847.42 4107.01 7847.42 4107.01 7845.13 4125.34 7845.13ZM4100.13 7847.42 4081.8 7847.42 4081.8 7845.13 4100.13 7845.13ZM4074.92 7847.42 4056.59 7847.42 4056.59 7845.13 4074.92 7845.13ZM4049.72 7847.42 4031.38 7847.42 4031.38 7845.13 4049.72 7845.13ZM4024.51 7847.42 4006.17 7847.42 4006.17 7845.13 4024.51 7845.13ZM3999.3 7847.42 3980.97 7847.42 3980.97 7845.13 3999.3 7845.13ZM3974.09 7847.42 3955.76 7847.42 3955.76 7845.13 3974.09 7845.13ZM3948.88 7847.42 3930.55 7847.42 3930.55 7845.13 3948.88 7845.13ZM3923.67 7847.42 3905.34 7847.42 3905.34 7845.13 3923.67 7845.13ZM3898.47 7847.42 3880.13 7847.42 3880.13 7845.13 3898.47 7845.13ZM3873.26 7847.42 3854.92 7847.42 3854.92 7845.13 3873.26 7845.13ZM3848.05 7847.42 3829.72 7847.42 3829.72 7845.13 3848.05 7845.13ZM3822.84 7847.42 3804.51 7847.42 3804.51 7845.13 3822.84 7845.13ZM3797.63 7847.42 3779.3 7847.42 3779.3 7845.13 3797.63 7845.13ZM3772.42 7847.42 3754.09 7847.42 3754.09 7845.13 3772.42 7845.13ZM3747.22 7847.42 3728.88 7847.42 3728.88 7845.13 3747.22 7845.13ZM3722.01 7847.42 3703.67 7847.42 3703.67 7845.13 3722.01 7845.13ZM3696.8 7847.42 3678.47 7847.42 3678.47 7845.13 3696.8 7845.13ZM3671.59 7847.42 3653.26 7847.42 3653.26 7845.13 3671.59 7845.13ZM3646.38 7847.42 3628.05 7847.42 3628.05 7845.13 3646.38 7845.13ZM3621.17 7847.42 3602.84 7847.42 3602.84 7845.13 3621.17 7845.13ZM3594.85 7846.24 3594.85 7827.91 3597.15 7827.91 3597.15 7846.24ZM3594.85 7821.03 3594.85 7802.7 3597.15 7802.7 3597.15 7821.03ZM3594.85 7795.82 3594.85 7777.49 3597.15 7777.49 3597.15 7795.82ZM3594.85 7770.61 3594.85 7755.26 3597.15 7755.26 3597.15 7770.61ZM3582.25 7759.84 3596 7732.34 3609.75 7759.84Z"/><text font-family="Times New Roman,Times New Roman_MSFontService,sans-serif" font-weight="400" font-size="110" transform="matrix(1 0 0 1 4323.76 7812)">Locate corresponding event stamp</text><path d="M0-1.14583 1735.69-1.14583 1735.69 488.78 1733.4 488.78 1733.4 0 1734.55 1.14583 0 1.14583ZM1748.3 484.197 1734.55 511.697 1720.8 484.197Z" transform="matrix(-1.83697e-16 -1 -1 1.83697e-16 7143.7 6517.55)"/><rect x="3500.5" y="7668.5" width="64" height="64.0005" stroke="#7030A0" stroke-width="4.58333" stroke-miterlimit="8" fill="#FFFFFF"/><rect x="3564.5" y="7668.5" width="63.0002" height="64.0005" stroke="#7030A0" stroke-width="4.58333" stroke-miterlimit="8" fill="#FFFFFF"/><rect x="3627.5" y="7668.5" width="64" height="64.0005" stroke="#7030A0" stroke-width="4.58333" stroke-miterlimit="8" fill="#FFFFFF"/><rect x="3691.5" y="7668.5" width="64" height="64.0005" stroke="#7030A0" stroke-width="4.58333" stroke-miterlimit="8" fill="#FFFFFF"/><rect x="3755.5" y="7668.5" width="64" height="64.0005" stroke="#7030A0" stroke-width="4.58333" stroke-miterlimit="8" fill="#FFFFFF"/><rect x="3819.5" y="7668.5" width="64" height="64.0005" stroke="#7030A0" stroke-width="4.58333" stroke-miterlimit="8" fill="#FFFFFF"/><rect x="3883.5" y="7668.5" width="64.0002" height="64.0005" stroke="#7030A0" stroke-width="4.58333" stroke-miterlimit="8" fill="#FFFFFF"/><rect x="3947.5" y="7668.5" width="63" height="64.0005" stroke="#7030A0" stroke-width="4.58333" stroke-miterlimit="8" fill="#FFFFFF"/><rect x="4010.5" y="7668.5" width="64" height="64.0005" stroke="#7030A0" stroke-width="4.58333" stroke-miterlimit="8" fill="#FFFFFF"/><rect x="4074.5" y="7668.5" width="64" height="64.0005" stroke="#7030A0" stroke-width="4.58333" stroke-miterlimit="8" fill="#FFFFFF"/><rect x="4138.5" y="7668.5" width="64" height="64.0005" stroke="#7030A0" stroke-width="4.58333" stroke-miterlimit="8" fill="#FFFFFF"/><rect x="4202.5" y="7668.5" width="64.0005" height="64.0005" stroke="#7030A0" stroke-width="4.58333" stroke-miterlimit="8" fill="#FFFFFF"/><path d="M2717 7152C2717 7119.69 2721.36 7093.5 2726.75 7093.5L3091.25 7093.5C3096.63 7093.5 3101 7067.31 3101 7035 3101 7067.31 3105.36 7093.5 3110.75 7093.5L3475.25 7093.5C3480.63 7093.5 3485 7119.69 3485 7152" stroke="#000000" stroke-width="2.29167" stroke-miterlimit="8" fill="none" fill-rule="evenodd"/><path d="M3594.85 7668.16 3594.85 7156.85 3978.18 7156.85 3978.18 7159.15 3596 7159.15 3597.15 7158 3597.15 7668.16ZM3973.59 7144.25 4001.09 7158 3973.59 7171.75Z"/><text font-family="Times New Roman,Times New Roman_MSFontService,sans-serif" font-weight="700" font-size="110" transform="matrix(1 0 0 1 4227.77 5647)">Seasonal Representation </text><text font-family="Times New Roman,Times New Roman_MSFontService,sans-serif" font-weight="700" font-size="110" transform="matrix(1 0 0 1 4443.9 5777)">Learning block</text><rect x="3936.5" y="5478.5" width="1745" height="912" stroke="#4472C4" stroke-width="6.875" stroke-linejoin="round" stroke-miterlimit="10" stroke-dasharray="55 20.625" fill="none"/><rect x="3305.5" y="6340.5" width="469" height="439" stroke="#000000" stroke-width="4.58333" stroke-miterlimit="8" fill="#FBE5C8"/><text font-family="Times New Roman,Times New Roman_MSFontService,sans-serif" font-weight="400" font-size="110" transform="matrix(1 0 0 1 3374.48 6533)">Bottom </text><text font-family="Times New Roman,Times New Roman_MSFontService,sans-serif" font-weight="400" font-size="110" transform="matrix(1 0 0 1 3356.14 6665)">Encoder</text><rect x="4032.5" y="5890.5" width="752" height="322" stroke="#000000" stroke-width="4.58333" stroke-miterlimit="8" fill="#FBE5C8"/><text font-family="Times New Roman,Times New Roman_MSFontService,sans-serif" font-weight="400" font-size="110" transform="matrix(1 0 0 1 4154.76 6025)">Granularity </text><text font-family="Times New Roman,Times New Roman_MSFontService,sans-serif" font-weight="400" font-size="110" transform="matrix(1 0 0 1 4228.1 6157)">Jittering</text><rect x="4881.5" y="5890.5" width="662" height="412" stroke="#000000" stroke-width="4.58333" stroke-miterlimit="8" fill="#FBE5C8"/><text font-family="Times New Roman,Times New Roman_MSFontService,sans-serif" font-weight="400" font-size="110" transform="matrix(1 0 0 1 5016.49 6004)">Seasonal </text><text font-family="Times New Roman,Times New Roman_MSFontService,sans-serif" font-weight="400" font-size="110" transform="matrix(1 0 0 1 5047.15 6136)">Feature </text><text font-family="Times New Roman,Times New Roman_MSFontService,sans-serif" font-weight="400" font-size="110" transform="matrix(1 0 0 1 4949.45 6268)">Disentangle </text><path d="M0-1.14583 1439.39-1.14583 1439.39 234.273 1437.09 234.273 1437.09 0 1438.24 1.14583 0 1.14583ZM1451.99 229.689 1438.24 257.189 1424.49 229.689Z" transform="matrix(1 0 0 -1 3774 6559.19)"/><rect x="4001.5" y="6952.5" width="1106" height="412" stroke="#4472C4" stroke-width="6.875" stroke-miterlimit="8" stroke-dasharray="27.5 20.625" fill="#FFFFFF"/><text font-family="Times New Roman,Times New Roman_MSFontService,sans-serif" font-weight="700" font-size="110" transform="matrix(1 0 0 1 4045.86 7132)">Event Representation </text><text font-family="Times New Roman,Times New Roman_MSFontService,sans-serif" font-weight="700" font-size="110" transform="matrix(1 0 0 1 4194.69 7264)">Learning block</text><rect x="5884.5" y="5631.5" width="793" height="2112" stroke="#4472C4" stroke-width="6.875" stroke-miterlimit="8" stroke-dasharray="27.5 20.625" fill="#FFFFFF"/><text font-family="Times New Roman,Times New Roman_MSFontService,sans-serif" font-weight="700" font-size="110" transform="matrix(1 0 0 1 5924.18 6661)">Representation </text><text font-family="Times New Roman,Times New Roman_MSFontService,sans-serif" font-weight="700" font-size="110" transform="matrix(1 0 0 1 5979.62 6793)">Fusion block</text><path d="M5107 7156.85 5861.49 7156.85 5861.49 7159.15 5107 7159.15ZM5856.9 7144.25 5884.4 7158 5856.9 7171.75Z"/><path d="M5543 6094.85 5860.97 6094.85 5860.97 6097.15 5543 6097.15ZM5856.39 6082.25 5883.89 6096 5856.39 6109.75Z"/><path d="M3774 6557.85 5861.46 6557.85 5861.46 6560.15 3774 6560.15ZM5856.88 6545.25 5884.38 6559 5856.88 6572.75Z"/><path d="M6112.5 5264.83C6112.5 5233.17 6138.17 5207.5 6169.83 5207.5L6620.17 5207.5C6651.83 5207.5 6677.5 5233.17 6677.5 5264.83L6677.5 5494.17C6677.5 5525.83 6651.83 5551.5 6620.17 5551.5L6169.83 5551.5C6138.17 5551.5 6112.5 5525.83 6112.5 5494.17Z" stroke="#FF7D86" stroke-width="6.875" stroke-miterlimit="8" stroke-dasharray="27.5 20.625" fill="#FFFFFF" fill-rule="evenodd"/><path d="M6862.5 6574.17C6862.5 6542.87 6887.87 6517.5 6919.17 6517.5L7369.83 6517.5C7401.13 6517.5 7426.5 6542.87 7426.5 6574.17L7426.5 6800.83C7426.5 6832.13 7401.13 6857.5 7369.83 6857.5L6919.17 6857.5C6887.87 6857.5 6862.5 6832.13 6862.5 6800.83Z" stroke="#FFC000" stroke-width="6.875" stroke-miterlimit="8" stroke-dasharray="27.5 20.625" fill="#FFFFFF" fill-rule="evenodd"/><rect x="6142" y="5219" width="505" height="300" fill="#FFFFFF"/><text font-family="Times New Roman,Times New Roman_MSFontService,sans-serif" font-weight="700" font-size="110" transform="matrix(1 0 0 1 6174.7 5341)">Encoder </text><text font-family="Times New Roman,Times New Roman_MSFontService,sans-serif" font-weight="700" font-size="110" transform="matrix(1 0 0 1 6174.7 5473)">Network</text><rect x="6892" y="6538" width="504" height="300" fill="#FFFFFF"/><text font-family="Times New Roman,Times New Roman_MSFontService,sans-serif" font-weight="700" font-size="110" transform="matrix(1 0 0 1 6924.82 6661)">Decoder </text><text font-family="Times New Roman,Times New Roman_MSFontService,sans-serif" font-weight="700" font-size="110" transform="matrix(1 0 0 1 6924.82 6793)">Network</text><path d="M5438.2 5027 5438.2 5343.92 3539 5343.92 3540.15 5342.77 3540.15 6316.58 3537.85 6316.58 3537.85 5341.63 5437.06 5341.63 5435.91 5342.77 5435.91 5027ZM3552.75 6311.99 3539 6339.49 3525.25 6311.99Z"/><path d="M3502.5 6814.5 3502.5 7998.55" stroke="#ED7D31" stroke-width="6.875" stroke-miterlimit="8" stroke-dasharray="55 20.625 6.875 20.625 6.875 20.625" fill="none" fill-rule="evenodd"/><text font-family="Times New Roman,Times New Roman_MSFontService,sans-serif" font-weight="400" font-size="110" transform="matrix(1 0 0 1 3724.91 5275)">Excluded from gradient propagation</text><path d="M0.000608646-1.14583 161.205-1.0602 161.204 1.23146-0.000608646 1.14583ZM156.628-13.6668 184.121 0.0978018 156.614 13.8332Z" transform="matrix(1 0 0 -1 6677 6687.1)"/><path d="M6677 5377.85 7004.77 5377.85 7004.77 6485.3 7002.48 6485.3 7002.48 5379 7003.62 5380.15 6677 5380.15ZM7017.37 6480.72 7003.62 6508.22 6989.87 6480.72Z"/><text font-family="Times New Roman,Times New Roman_MSFontService,sans-serif" font-style="italic" font-weight="400" font-size="110" transform="matrix(1 0 0 1 3547.36 6965)">T</text></g></svg>