<svg width="4699" height="3475" xmlns="http://www.w3.org/2000/svg" xmlns:xlink="http://www.w3.org/1999/xlink" xml:space="preserve" overflow="hidden"><g transform="translate(-2682 -4535)"><rect x="2734.5" y="7191.5" width="63" height="64" stroke="#77CFB6" stroke-width="4.58333" stroke-miterlimit="8" fill="#FFFFFF"/><rect x="2797.5" y="7191.5" width="64" height="64" stroke="#77CFB6" stroke-width="4.58333" stroke-miterlimit="8" fill="#FFFFFF"/><rect x="2861.5" y="7191.5" width="64.0002" height="64" stroke="#77CFB6" stroke-width="4.58333" stroke-miterlimit="8" fill="#FFFFFF"/><rect x="2925.5" y="7191.5" width="64" height="64" stroke="#77CFB6" stroke-width="4.58333" stroke-miterlimit="8" fill="#FFFFFF"/><rect x="2989.5" y="7191.5" width="64" height="64" stroke="#77CFB6" stroke-width="4.58333" stroke-miterlimit="8" fill="#FFFFFF"/><rect x="3054.5" y="7191.5" width="64" height="64" stroke="#77CFB6" stroke-width="4.58333" stroke-miterlimit="8" fill="#FFFFFF"/><rect x="3118.5" y="7191.5" width="64" height="64" stroke="#77CFB6" stroke-width="4.58333" stroke-miterlimit="8" fill="#FFFFFF"/><rect x="3182.5" y="7191.5" width="64" height="64" stroke="#77CFB6" stroke-width="4.58333" stroke-miterlimit="8" fill="#FFFFFF"/><rect x="3246.5" y="7191.5" width="64.0002" height="64" stroke="#77CFB6" stroke-width="4.58333" stroke-miterlimit="8" fill="#FFFFFF"/><rect x="3310.5" y="7191.5" width="63" height="64" stroke="#77CFB6" stroke-width="4.58333" stroke-miterlimit="8" fill="#FFFFFF"/><rect x="3373.5" y="7191.5" width="64" height="64" stroke="#77CFB6" stroke-width="4.58333" stroke-miterlimit="8" fill="#FFFFFF"/><rect x="3437.5" y="7191.5" width="64" height="64" stroke="#77CFB6" stroke-width="4.58333" stroke-miterlimit="8" fill="#FFFFFF"/><text font-family="Times New Roman,Times New Roman_MSFontService,sans-serif" font-weight="400" font-size="110" transform="matrix(1 0 0 1 2773.56 7385)">Flow value (</text><path d="M3344.38 7311.23 3366.08 7311.23 3365.49 7313.87C3363.95 7314.12 3362.72 7314.64 3361.81 7315.45 3360.9 7316.26 3360.44 7317.43 3360.44 7318.97 3360.44 7321.26 3361.03 7324.14 3362.21 7327.62L3366.67 7340.61 3376.61 7328.04C3378.15 7326.11 3379.35 7324.53 3380.21 7323.29 3381.07 7322.06 3381.68 7320.96 3382.06 7320.02 3382.44 7319.07 3382.62 7318.23 3382.62 7317.52 3382.62 7316.55 3382.34 7315.73 3381.76 7315.05 3381.19 7314.37 3380.21 7313.97 3378.81 7313.87L3379.4 7311.23 3399.44 7311.23 3398.84 7313.87C3397.77 7314.19 3396.76 7314.71 3395.81 7315.42 3394.86 7316.14 3393.73 7317.21 3392.43 7318.65 3391.12 7320.08 3388.69 7322.91 3385.15 7327.13L3369.14 7346.25 3376.98 7368.06C3378.17 7371.35 3379.13 7373.87 3379.89 7375.61 3380.64 7377.34 3381.3 7378.62 3381.87 7379.45 3382.34 7380.06 3382.82 7380.53 3383.32 7380.87 3383.82 7381.21 3384.67 7381.56 3385.85 7381.92L3385.31 7384.55 3363.61 7384.55 3364.15 7381.92C3365.79 7381.67 3367.06 7381.1 3367.93 7380.23 3368.81 7379.35 3369.25 7378.21 3369.25 7376.81 3369.25 7374.7 3368.82 7372.36 3367.96 7369.78L3362.38 7353.4 3350.13 7368.7C3348.3 7371 3346.98 7372.87 3346.15 7374.32 3345.33 7375.77 3344.92 7377.01 3344.92 7378.05 3344.92 7379.45 3345.25 7380.4 3345.91 7380.92 3346.58 7381.44 3347.52 7381.77 3348.73 7381.92L3348.14 7384.55 3328.16 7384.55 3328.7 7381.92C3329.81 7381.56 3330.82 7381.04 3331.73 7380.36 3332.65 7379.68 3333.83 7378.52 3335.28 7376.9 3336.73 7375.27 3339.26 7372.3 3342.88 7368.01L3359.9 7347.76 3351.96 7325.68C3350.63 7321.99 3349.59 7319.44 3348.84 7318.03 3348.09 7316.61 3347.35 7315.62 3346.61 7315.05 3345.88 7314.47 3344.94 7314.08 3343.79 7313.87Z" fill-rule="evenodd"/><text fill="#000000" fill-opacity="0" font-family="Arial,Arial_MSFontService,sans-serif" font-size="73.3154" x="3328.16" y="7375.38">ğ‘‹</text><text font-family="Times New Roman,Times New Roman_MSFontService,sans-serif" font-weight="400" font-size="110" transform="matrix(1 0 0 1 3403.01 7385)">)</text><rect x="2733.5" y="7668.5" width="64" height="64.0005" stroke="#7030A0" stroke-width="4.58333" stroke-miterlimit="8" fill="#FFFFFF"/><rect x="2797.5" y="7668.5" width="64" height="64.0005" stroke="#7030A0" stroke-width="4.58333" stroke-miterlimit="8" fill="#FFFFFF"/><rect x="2861.5" y="7668.5" width="63.0002" height="64.0005" stroke="#7030A0" stroke-width="4.58333" stroke-miterlimit="8" fill="#FFFFFF"/><rect x="2924.5" y="7668.5" width="64" height="64.0005" stroke="#7030A0" stroke-width="4.58333" stroke-miterlimit="8" fill="#FFFFFF"/><rect x="2988.5" y="7668.5" width="64" height="64.0005" stroke="#7030A0" stroke-width="4.58333" stroke-miterlimit="8" fill="#FFFFFF"/><rect x="3052.5" y="7668.5" width="64" height="64.0005" stroke="#7030A0" stroke-width="4.58333" stroke-miterlimit="8" fill="#FFFFFF"/><rect x="3116.5" y="7668.5" width="64" height="64.0005" stroke="#7030A0" stroke-width="4.58333" stroke-miterlimit="8" fill="#FFFFFF"/><rect x="3180.5" y="7668.5" width="63.0002" height="64.0005" stroke="#7030A0" stroke-width="4.58333" stroke-miterlimit="8" fill="#FFFFFF"/><rect x="3243.5" y="7668.5" width="64" height="64.0005" stroke="#7030A0" stroke-width="4.58333" stroke-miterlimit="8" fill="#FFFFFF"/><rect x="3307.5" y="7668.5" width="64" height="64.0005" stroke="#7030A0" stroke-width="4.58333" stroke-miterlimit="8" fill="#FFFFFF"/><rect x="3371.5" y="7668.5" width="64" height="64.0005" stroke="#7030A0" stroke-width="4.58333" stroke-miterlimit="8" fill="#FFFFFF"/><rect x="3435.5" y="7668.5" width="64" height="64.0005" stroke="#7030A0" stroke-width="4.58333" stroke-miterlimit="8" fill="#FFFFFF"/><text font-family="Times New Roman,Times New Roman_MSFontService,sans-serif" font-weight="400" font-size="110" transform="matrix(1 0 0 1 2748.1 7917)">E</text><text font-family="Times New Roman,Times New Roman_MSFontService,sans-serif" font-weight="400" font-size="110" transform="matrix(1 0 0 1 2815.13 7917)">vent stamp (</text><path d="M3375.39 7843.87 3424.8 7843.87 3421.1 7860.36 3415.94 7860.36C3415.8 7857.25 3415.53 7854.9 3415.14 7853.33 3414.74 7851.75 3414.27 7850.67 3413.71 7850.08 3413.16 7849.49 3412.5 7849.09 3411.73 7848.9 3410.96 7848.7 3409.85 7848.6 3408.42 7848.6L3390.91 7848.6 3384.79 7876.74 3395.05 7876.74C3397.59 7876.74 3399.53 7876.14 3400.88 7874.94 3402.22 7873.75 3403.57 7871.77 3404.93 7869.01L3409.82 7869.01 3404.98 7889.63 3400.42 7889.63C3400.42 7886.77 3400.24 7884.83 3399.88 7883.81 3399.52 7882.79 3399 7882.14 3398.3 7881.87 3397.6 7881.6 3396.34 7881.47 3394.51 7881.47L3383.77 7881.47 3376.89 7912.46 3392.79 7912.46C3394.9 7912.46 3396.58 7912.25 3397.81 7911.82 3399.05 7911.39 3400.21 7910.69 3401.31 7909.72 3402.4 7908.76 3403.49 7907.4 3404.58 7905.67 3405.67 7903.93 3406.97 7901.58 3408.48 7898.6L3413.69 7898.6 3408.96 7917.19 3361.32 7917.19 3361.91 7914.56C3363.27 7914.34 3364.29 7913.99 3364.97 7913.51 3365.65 7913.03 3366.22 7912.35 3366.69 7911.5 3367.15 7910.64 3367.58 7909.59 3367.98 7908.35 3368.37 7907.12 3368.96 7904.73 3369.75 7901.18L3378.88 7859.83C3379.67 7856.24 3380.06 7853.36 3380.06 7851.18 3380.06 7849.49 3379.64 7848.32 3378.8 7847.66 3377.96 7847 3376.63 7846.61 3374.8 7846.5Z" fill-rule="evenodd"/><text fill="#000000" fill-opacity="0" font-family="Arial,Arial_MSFontService,sans-serif" font-size="73.3154" x="3361.32" y="7908.02">ğ¸</text><text font-family="Times New Roman,Times New Roman_MSFontService,sans-serif" font-weight="400" font-size="110" transform="matrix(1 0 0 1 3431.31 7917)">) </text><rect x="4242.5" y="4538.5" width="2390" height="489" stroke="#4472C4" stroke-width="6.875" stroke-miterlimit="8" stroke-dasharray="55 20.625" fill="none"/><rect x="4853.5" y="4773.5" width="64" height="64" stroke="#77CFB6" stroke-width="4.58333" stroke-miterlimit="8" stroke-dasharray="18.3333 13.75" fill="#FFFFFF"/><rect x="4916.5" y="4773.5" width="64" height="64" stroke="#77CFB6" stroke-width="4.58333" stroke-miterlimit="8" stroke-dasharray="18.3333 13.75" fill="#FFFFFF"/><rect x="4980.5" y="4773.5" width="64" height="64" stroke="#77CFB6" stroke-width="4.58333" stroke-miterlimit="8" fill="#FFFFFF"/><rect x="5044.5" y="4773.5" width="64" height="64" stroke="#77CFB6" stroke-width="4.58333" stroke-miterlimit="8" fill="#FFFFFF"/><rect x="5108.5" y="4773.5" width="64" height="64" stroke="#77CFB6" stroke-width="4.58333" stroke-miterlimit="8" fill="#FFFFFF"/><rect x="5172.5" y="4773.5" width="64" height="64" stroke="#77CFB6" stroke-width="4.58333" stroke-miterlimit="8" fill="#FFFFFF"/><rect x="5236.5" y="4773.5" width="63.0005" height="64" stroke="#77CFB6" stroke-width="4.58333" stroke-miterlimit="8" fill="#FFFFFF"/><rect x="5299.5" y="4773.5" width="64" height="64" stroke="#77CFB6" stroke-width="4.58333" stroke-miterlimit="8" fill="#FFFFFF"/><rect x="5363.5" y="4773.5" width="64" height="64" stroke="#77CFB6" stroke-width="4.58333" stroke-miterlimit="8" fill="#FFFFFF"/><rect x="5427.5" y="4773.5" width="64" height="64" stroke="#77CFB6" stroke-width="4.58333" stroke-miterlimit="8" fill="#FFFFFF"/><rect x="5491.5" y="4773.5" width="64" height="64" stroke="#77CFB6" stroke-width="4.58333" stroke-miterlimit="8" fill="#FFFFFF"/><rect x="5555.5" y="4773.5" width="64.0005" height="64" stroke="#FFC000" stroke-width="4.58333" stroke-miterlimit="8" fill="#FFFFFF"/><rect x="5619.5" y="4773.5" width="64" height="64" stroke="#FFC000" stroke-width="4.58333" stroke-miterlimit="8" fill="#FFFFFF"/><text font-family="Times New Roman,Times New Roman_MSFontService,sans-serif" font-weight="400" font-size="110" transform="matrix(1 0 0 1 5229.65 4700)">Concatenate prediction values</text><text font-family="Times New Roman,Times New Roman_MSFontService,sans-serif" font-weight="400" font-size="110" transform="matrix(1 0 0 1 4379.26 4969)">Drop initial values</text><path d="M3099.85 7034.91 3099.85 4781.85 4219.92 4781.85 4219.92 4784.15 3101 4784.15 3102.15 4783 3102.15 7034.91ZM4215.34 4769.25 4242.84 4783 4215.34 4796.75Z"/><path d="M7096.22 6857 7096.22 6875.33 7093.93 6875.33 7093.93 6857ZM7096.22 6882.21 7096.22 6900.54 7093.93 6900.54 7093.93 6882.21ZM7096.22 6907.42 7096.22 6925.75 7093.93 6925.75 7093.93 6907.42ZM7096.22 6932.62 7096.22 6950.96 7093.93 6950.96 7093.93 6932.62ZM7096.22 6957.83 7096.22 6976.17 7093.93 6976.17 7093.93 6957.83ZM7096.22 6983.04 7096.22 7001.38 7093.93 7001.38 7093.93 6983.04ZM7096.22 7008.25 7096.22 7026.58 7093.93 7026.58 7093.93 7008.25ZM7096.22 7033.46 7096.22 7051.79 7093.93 7051.79 7093.93 7033.46ZM7096.22 7058.67 7096.22 7077 7093.93 7077 7093.93 7058.67ZM7096.22 7083.88 7096.22 7102.21 7093.93 7102.21 7093.93 7083.88ZM7096.22 7109.08 7096.22 7127.42 7093.93 7127.42 7093.93 7109.08ZM7096.22 7134.29 7096.22 7152.62 7093.93 7152.62 7093.93 7134.29ZM7096.22 7159.5 7096.22 7177.83 7093.93 7177.83 7093.93 7159.5ZM7096.22 7184.71 7096.22 7203.04 7093.93 7203.04 7093.93 7184.71ZM7096.22 7209.92 7096.22 7228.25 7093.93 7228.25 7093.93 7209.92ZM7096.22 7235.12 7096.22 7253.46 7093.93 7253.46 7093.93 7235.12ZM7096.22 7260.33 7096.22 7278.67 7093.93 7278.67 7093.93 7260.33ZM7096.22 7285.54 7096.22 7303.88 7093.93 7303.88 7093.93 7285.54ZM7096.22 7310.75 7096.22 7329.08 7093.93 7329.08 7093.93 7310.75ZM7096.22 7335.96 7096.22 7354.29 7093.93 7354.29 7093.93 7335.96ZM7096.22 7361.17 7096.22 7379.5 7093.93 7379.5 7093.93 7361.17ZM7096.22 7386.38 7096.22 7404.71 7093.93 7404.71 7093.93 7386.38ZM7096.22 7411.58 7096.22 7429.92 7093.93 7429.92 7093.93 7411.58ZM7096.22 7436.79 7096.22 7455.12 7093.93 7455.12 7093.93 7436.79ZM7096.22 7462 7096.22 7480.33 7093.93 7480.33 7093.93 7462ZM7096.22 7487.21 7096.22 7505.54 7093.93 7505.54 7093.93 7487.21ZM7096.22 7512.42 7096.22 7530.75 7093.93 7530.75 7093.93 7512.42ZM7096.22 7537.62 7096.22 7555.96 7093.93 7555.96 7093.93 7537.62ZM7096.22 7562.83 7096.22 7581.17 7093.93 7581.17 7093.93 7562.83ZM7096.22 7588.04 7096.22 7606.38 7093.93 7606.38 7093.93 7588.04ZM7096.22 7613.25 7096.22 7631.58 7093.93 7631.58 7093.93 7613.25ZM7096.22 7638.46 7096.22 7656.79 7093.93 7656.79 7093.93 7638.46ZM7096.22 7663.67 7096.22 7682 7093.93 7682 7093.93 7663.67ZM7096.22 7688.88 7096.22 7707.21 7093.93 7707.21 7093.93 7688.88ZM7096.22 7714.08 7096.22 7732.42 7093.93 7732.42 7093.93 7714.08ZM7096.22 7739.29 7096.22 7757.62 7093.93 7757.62 7093.93 7739.29ZM7096.22 7764.5 7096.22 7782.83 7093.93 7782.83 7093.93 7764.5ZM7096.22 7789.71 7096.22 7808.04 7093.93 7808.04 7093.93 7789.71ZM7096.22 7814.92 7096.22 7833.25 7093.93 7833.25 7093.93 7814.92ZM7096.22 7840.12 7096.22 7858.46 7093.93 7858.46 7093.93 7840.12ZM7096.22 7865.33 7096.22 7883.67 7093.93 7883.67 7093.93 7865.33ZM7096.22 7890.54 7096.22 7908.88 7093.93 7908.88 7093.93 7890.54ZM7090.42 7912.24 7072.08 7912.24 7072.08 7909.95 7090.42 7909.95ZM7065.21 7912.24 7046.87 7912.24 7046.87 7909.95 7065.21 7909.95ZM7040 7912.24 7021.67 7912.24 7021.67 7909.95 7040 7909.95ZM7014.79 7912.24 6996.46 7912.24 6996.46 7909.95 7014.79 7909.95ZM6989.58 7912.24 6971.25 7912.24 6971.25 7909.95 6989.58 7909.95ZM6964.37 7912.24 6946.04 7912.24 6946.04 7909.95 6964.37 7909.95ZM6939.17 7912.24 6920.83 7912.24 6920.83 7909.95 6939.17 7909.95ZM6913.96 7912.24 6895.62 7912.24 6895.62 7909.95 6913.96 7909.95ZM6888.75 7912.24 6870.42 7912.24 6870.42 7909.95 6888.75 7909.95ZM6863.54 7912.24 6845.21 7912.24 6845.21 7909.95 6863.54 7909.95ZM6838.33 7912.24 6820 7912.24 6820 7909.95 6838.33 7909.95ZM6813.12 7912.24 6794.79 7912.24 6794.79 7909.95 6813.12 7909.95ZM6787.92 7912.24 6769.58 7912.24 6769.58 7909.95 6787.92 7909.95ZM6762.71 7912.24 6744.37 7912.24 6744.37 7909.95 6762.71 7909.95ZM6737.5 7912.24 6719.17 7912.24 6719.17 7909.95 6737.5 7909.95ZM6712.29 7912.24 6693.96 7912.24 6693.96 7909.95 6712.29 7909.95ZM6687.08 7912.24 6668.75 7912.24 6668.75 7909.95 6687.08 7909.95ZM6661.87 7912.24 6643.54 7912.24 6643.54 7909.95 6661.87 7909.95ZM6636.67 7912.24 6618.33 7912.24 6618.33 7909.95 6636.67 7909.95ZM6611.46 7912.24 6593.12 7912.24 6593.12 7909.95 6611.46 7909.95ZM6586.25 7912.24 6567.92 7912.24 6567.92 7909.95 6586.25 7909.95ZM6561.04 7912.24 6542.71 7912.24 6542.71 7909.95 6561.04 7909.95ZM6535.83 7912.24 6517.5 7912.24 6517.5 7909.95 6535.83 7909.95ZM6510.62 7912.24 6492.29 7912.24 6492.29 7909.95 6510.62 7909.95ZM6485.42 7912.24 6467.08 7912.24 6467.08 7909.95 6485.42 7909.95ZM6460.21 7912.24 6441.87 7912.24 6441.87 7909.95 6460.21 7909.95ZM6435 7912.24 6416.67 7912.24 6416.67 7909.95 6435 7909.95ZM6409.79 7912.24 6391.46 7912.24 6391.46 7909.95 6409.79 7909.95ZM6384.58 7912.24 6366.25 7912.24 6366.25 7909.95 6384.58 7909.95ZM6359.37 7912.24 6341.04 7912.24 6341.04 7909.95 6359.37 7909.95ZM6334.17 7912.24 6315.83 7912.24 6315.83 7909.95 6334.17 7909.95ZM6308.96 7912.24 6290.62 7912.24 6290.62 7909.95 6308.96 7909.95ZM6283.75 7912.24 6265.42 7912.24 6265.42 7909.95 6283.75 7909.95ZM6258.54 7912.24 6240.21 7912.24 6240.21 7909.95 6258.54 7909.95ZM6233.33 7912.24 6215 7912.24 6215 7909.95 6233.33 7909.95ZM6208.12 7912.24 6189.79 7912.24 6189.79 7909.95 6208.12 7909.95ZM6182.92 7912.24 6164.58 7912.24 6164.58 7909.95 6182.92 7909.95ZM6157.71 7912.24 6139.37 7912.24 6139.37 7909.95 6157.71 7909.95ZM6132.5 7912.24 6114.17 7912.24 6114.17 7909.95 6132.5 7909.95ZM6107.29 7912.24 6088.96 7912.24 6088.96 7909.95 6107.29 7909.95ZM6082.08 7912.24 6063.75 7912.24 6063.75 7909.95 6082.08 7909.95ZM6056.87 7912.24 6038.54 7912.24 6038.54 7909.95 6056.87 7909.95ZM6031.67 7912.24 6013.33 7912.24 6013.33 7909.95 6031.67 7909.95ZM6006.46 7912.24 5988.12 7912.24 5988.12 7909.95 6006.46 7909.95ZM5981.25 7912.24 5962.92 7912.24 5962.92 7909.95 5981.25 7909.95ZM5956.04 7912.24 5937.71 7912.24 5937.71 7909.95 5956.04 7909.95ZM5930.83 7912.24 5912.5 7912.24 5912.5 7909.95 5930.83 7909.95ZM5905.62 7912.24 5887.29 7912.24 5887.29 7909.95 5905.62 7909.95ZM5880.42 7912.24 5862.08 7912.24 5862.08 7909.95 5880.42 7909.95ZM5855.21 7912.24 5836.87 7912.24 5836.87 7909.95 5855.21 7909.95ZM5830 7912.24 5811.67 7912.24 5811.67 7909.95 5830 7909.95ZM5804.79 7912.24 5786.46 7912.24 5786.46 7909.95 5804.79 7909.95ZM5779.58 7912.24 5761.25 7912.24 5761.25 7909.95 5779.58 7909.95ZM5754.37 7912.24 5736.04 7912.24 5736.04 7909.95 5754.37 7909.95ZM5729.17 7912.24 5710.83 7912.24 5710.83 7909.95 5729.17 7909.95ZM5703.96 7912.24 5685.62 7912.24 5685.62 7909.95 5703.96 7909.95ZM5678.75 7912.24 5660.42 7912.24 5660.42 7909.95 5678.75 7909.95ZM5653.54 7912.24 5635.21 7912.24 5635.21 7909.95 5653.54 7909.95ZM5628.33 7912.24 5610 7912.24 5610 7909.95 5628.33 7909.95ZM5603.12 7912.24 5584.79 7912.24 5584.79 7909.95 5603.12 7909.95ZM5577.92 7912.24 5559.58 7912.24 5559.58 7909.95 5577.92 7909.95ZM5552.71 7912.24 5534.37 7912.24 5534.37 7909.95 5552.71 7909.95ZM5527.5 7912.24 5509.17 7912.24 5509.17 7909.95 5527.5 7909.95ZM5502.29 7912.24 5483.96 7912.24 5483.96 7909.95 5502.29 7909.95ZM5477.08 7912.24 5458.75 7912.24 5458.75 7909.95 5477.08 7909.95ZM5451.87 7912.24 5433.54 7912.24 5433.54 7909.95 5451.87 7909.95ZM5426.67 7912.24 5408.33 7912.24 5408.33 7909.95 5426.67 7909.95ZM5401.46 7912.24 5383.12 7912.24 5383.12 7909.95 5401.46 7909.95ZM5376.25 7912.24 5357.92 7912.24 5357.92 7909.95 5376.25 7909.95ZM5351.04 7912.24 5332.71 7912.24 5332.71 7909.95 5351.04 7909.95ZM5325.83 7912.24 5307.5 7912.24 5307.5 7909.95 5325.83 7909.95ZM5300.62 7912.24 5282.29 7912.24 5282.29 7909.95 5300.62 7909.95ZM5275.42 7912.24 5257.08 7912.24 5257.08 7909.95 5275.42 7909.95ZM5250.21 7912.24 5231.87 7912.24 5231.87 7909.95 5250.21 7909.95ZM5225 7912.24 5206.67 7912.24 5206.67 7909.95 5225 7909.95ZM5199.79 7912.24 5181.46 7912.24 5181.46 7909.95 5199.79 7909.95ZM5174.58 7912.24 5156.25 7912.24 5156.25 7909.95 5174.58 7909.95ZM5149.37 7912.24 5131.04 7912.24 5131.04 7909.95 5149.37 7909.95ZM5124.17 7912.24 5105.83 7912.24 5105.83 7909.95 5124.17 7909.95ZM5098.96 7912.24 5080.62 7912.24 5080.62 7909.95 5098.96 7909.95ZM5073.75 7912.24 5055.42 7912.24 5055.42 7909.95 5073.75 7909.95ZM5048.54 7912.24 5030.21 7912.24 5030.21 7909.95 5048.54 7909.95ZM5023.33 7912.24 5005 7912.24 5005 7909.95 5023.33 7909.95ZM4998.12 7912.24 4979.79 7912.24 4979.79 7909.95 4998.12 7909.95ZM4972.92 7912.24 4954.58 7912.24 4954.58 7909.95 4972.92 7909.95ZM4947.71 7912.24 4929.37 7912.24 4929.37 7909.95 4947.71 7909.95ZM4922.5 7912.24 4904.17 7912.24 4904.17 7909.95 4922.5 7909.95ZM4897.29 7912.24 4878.96 7912.24 4878.96 7909.95 4897.29 7909.95ZM4872.08 7912.24 4853.75 7912.24 4853.75 7909.95 4872.08 7909.95ZM4846.87 7912.24 4828.54 7912.24 4828.54 7909.95 4846.87 7909.95ZM4821.67 7912.24 4803.33 7912.24 4803.33 7909.95 4821.67 7909.95ZM4796.46 7912.24 4778.12 7912.24 4778.12 7909.95 4796.46 7909.95ZM4771.25 7912.24 4752.92 7912.24 4752.92 7909.95 4771.25 7909.95ZM4746.04 7912.24 4727.71 7912.24 4727.71 7909.95 4746.04 7909.95ZM4720.83 7912.24 4702.5 7912.24 4702.5 7909.95 4720.83 7909.95ZM4695.62 7912.24 4677.29 7912.24 4677.29 7909.95 4695.62 7909.95ZM4670.42 7912.24 4652.08 7912.24 4652.08 7909.95 4670.42 7909.95ZM4645.21 7912.24 4626.87 7912.24 4626.87 7909.95 4645.21 7909.95ZM4620 7912.24 4601.67 7912.24 4601.67 7909.95 4620 7909.95ZM4594.79 7912.24 4576.46 7912.24 4576.46 7909.95 4594.79 7909.95ZM4569.58 7912.24 4551.25 7912.24 4551.25 7909.95 4569.58 7909.95ZM4544.37 7912.24 4526.04 7912.24 4526.04 7909.95 4544.37 7909.95ZM4519.17 7912.24 4500.83 7912.24 4500.83 7909.95 4519.17 7909.95ZM4493.96 7912.24 4475.62 7912.24 4475.62 7909.95 4493.96 7909.95ZM4468.75 7912.24 4450.42 7912.24 4450.42 7909.95 4468.75 7909.95ZM4443.54 7912.24 4425.21 7912.24 4425.21 7909.95 4443.54 7909.95ZM4418.33 7912.24 4400 7912.24 4400 7909.95 4418.33 7909.95ZM4393.12 7912.24 4374.79 7912.24 4374.79 7909.95 4393.12 7909.95ZM4367.92 7912.24 4349.58 7912.24 4349.58 7909.95 4367.92 7909.95ZM4342.71 7912.24 4324.37 7912.24 4324.37 7909.95 4342.71 7909.95ZM4317.5 7912.24 4299.17 7912.24 4299.17 7909.95 4317.5 7909.95ZM4292.29 7912.24 4273.96 7912.24 4273.96 7909.95 4292.29 7909.95ZM4267.08 7912.24 4248.75 7912.24 4248.75 7909.95 4267.08 7909.95ZM4241.87 7912.24 4223.54 7912.24 4223.54 7909.95 4241.87 7909.95ZM4216.67 7912.24 4198.33 7912.24 4198.33 7909.95 4216.67 7909.95ZM4191.46 7912.24 4173.12 7912.24 4173.12 7909.95 4191.46 7909.95ZM4166.25 7912.24 4147.92 7912.24 4147.92 7909.95 4166.25 7909.95ZM4141.04 7912.24 4122.71 7912.24 4122.71 7909.95 4141.04 7909.95ZM4115.83 7912.24 4097.5 7912.24 4097.5 7909.95 4115.83 7909.95ZM4090.62 7912.24 4072.29 7912.24 4072.29 7909.95 4090.62 7909.95ZM4065.42 7912.24 4047.08 7912.24 4047.08 7909.95 4065.42 7909.95ZM4040.21 7912.24 4021.87 7912.24 4021.87 7909.95 4040.21 7909.95ZM4015 7912.24 3996.67 7912.24 3996.67 7909.95 4015 7909.95ZM3989.79 7912.24 3971.46 7912.24 3971.46 7909.95 3989.79 7909.95ZM3964.58 7912.24 3946.25 7912.24 3946.25 7909.95 3964.58 7909.95ZM3939.37 7912.24 3921.04 7912.24 3921.04 7909.95 3939.37 7909.95ZM3914.17 7912.24 3895.83 7912.24 3895.83 7909.95 3914.17 7909.95ZM3888.96 7912.24 3870.62 7912.24 3870.62 7909.95 3888.96 7909.95ZM3863.75 7912.24 3845.42 7912.24 3845.42 7909.95 3863.75 7909.95ZM3838.54 7912.24 3820.21 7912.24 3820.21 7909.95 3838.54 7909.95ZM3813.33 7912.24 3795 7912.24 3795 7909.95 3813.33 7909.95ZM3788.12 7912.24 3769.79 7912.24 3769.79 7909.95 3788.12 7909.95ZM3762.92 7912.24 3744.58 7912.24 3744.58 7909.95 3762.92 7909.95ZM3737.71 7912.24 3719.37 7912.24 3719.37 7909.95 3737.71 7909.95ZM3712.5 7912.24 3694.17 7912.24 3694.17 7909.95 3712.5 7909.95ZM3687.29 7912.24 3668.96 7912.24 3668.96 7909.95 3687.29 7909.95ZM3662.08 7912.24 3643.75 7912.24 3643.75 7909.95 3662.08 7909.95ZM3636.87 7912.24 3618.54 7912.24 3618.54 7909.95 3636.87 7909.95ZM3611.67 7912.24 3594.85 7912.24 3594.85 7908.42 3597.15 7908.42 3597.15 7911.09 3596 7909.95 3611.67 7909.95ZM3594.85 7901.55 3594.85 7883.22 3597.15 7883.22 3597.15 7901.55ZM3594.85 7876.34 3594.85 7858.01 3597.15 7858.01 3597.15 7876.34ZM3594.85 7851.13 3594.85 7832.8 3597.15 7832.8 3597.15 7851.13ZM3594.85 7825.92 3594.85 7807.59 3597.15 7807.59 3597.15 7825.92ZM3594.85 7800.72 3594.85 7782.38 3597.15 7782.38 3597.15 7800.72ZM3594.85 7775.51 3594.85 7757.17 3597.15 7757.17 3597.15 7775.51ZM3582.25 7759.84 3596 7732.34 3609.75 7759.84Z"/><text font-family="Times New Roman,Times New Roman_MSFontService,sans-serif" font-weight="400" font-size="110" transform="matrix(1 0 0 1 4323.76 7854)">Locate corresponding event stamp</text><path d="M0-1.14583 1735.69-1.14583 1735.69 439.661 1733.4 439.661 1733.4 0 1734.55 1.14583 0 1.14583ZM1748.3 435.077 1734.55 462.577 1720.8 435.077Z" transform="matrix(-1.83697e-16 -1 -1 1.83697e-16 7094.58 6517.55)"/><rect x="3500.5" y="7668.5" width="64" height="64.0005" stroke="#7030A0" stroke-width="4.58333" stroke-miterlimit="8" fill="#FFFFFF"/><rect x="3564.5" y="7668.5" width="63.0002" height="64.0005" stroke="#7030A0" stroke-width="4.58333" stroke-miterlimit="8" fill="#FFFFFF"/><rect x="3627.5" y="7668.5" width="64" height="64.0005" stroke="#7030A0" stroke-width="4.58333" stroke-miterlimit="8" fill="#FFFFFF"/><rect x="3691.5" y="7668.5" width="64" height="64.0005" stroke="#7030A0" stroke-width="4.58333" stroke-miterlimit="8" fill="#FFFFFF"/><rect x="3755.5" y="7668.5" width="64" height="64.0005" stroke="#7030A0" stroke-width="4.58333" stroke-miterlimit="8" fill="#FFFFFF"/><rect x="3819.5" y="7668.5" width="64" height="64.0005" stroke="#7030A0" stroke-width="4.58333" stroke-miterlimit="8" fill="#FFFFFF"/><rect x="3883.5" y="7668.5" width="64.0002" height="64.0005" stroke="#7030A0" stroke-width="4.58333" stroke-miterlimit="8" fill="#FFFFFF"/><rect x="3947.5" y="7668.5" width="63" height="64.0005" stroke="#7030A0" stroke-width="4.58333" stroke-miterlimit="8" fill="#FFFFFF"/><rect x="4010.5" y="7668.5" width="64" height="64.0005" stroke="#7030A0" stroke-width="4.58333" stroke-miterlimit="8" fill="#FFFFFF"/><rect x="4074.5" y="7668.5" width="64" height="64.0005" stroke="#7030A0" stroke-width="4.58333" stroke-miterlimit="8" fill="#FFFFFF"/><rect x="4138.5" y="7668.5" width="64" height="64.0005" stroke="#7030A0" stroke-width="4.58333" stroke-miterlimit="8" fill="#FFFFFF"/><rect x="4202.5" y="7668.5" width="64.0005" height="64.0005" stroke="#7030A0" stroke-width="4.58333" stroke-miterlimit="8" fill="#FFFFFF"/><path d="M2717 7152C2717 7119.69 2721.36 7093.5 2726.75 7093.5L3091.25 7093.5C3096.63 7093.5 3101 7067.31 3101 7035 3101 7067.31 3105.36 7093.5 3110.75 7093.5L3475.25 7093.5C3480.63 7093.5 3485 7119.69 3485 7152" stroke="#000000" stroke-width="2.29167" stroke-miterlimit="8" fill="none" fill-rule="evenodd"/><path d="M3594.85 7668.16 3594.85 7156.85 3978.18 7156.85 3978.18 7159.15 3596 7159.15 3597.15 7158 3597.15 7668.16ZM3973.59 7144.25 4001.09 7158 3973.59 7171.75Z"/><text font-family="Times New Roman,Times New Roman_MSFontService,sans-serif" font-weight="700" font-size="110" transform="matrix(1 0 0 1 4218.51 5597)">Seasonal Representation </text><text font-family="Times New Roman,Times New Roman_MSFontService,sans-serif" font-weight="700" font-size="110" transform="matrix(1 0 0 1 4434.64 5727)">Learning block</text><rect x="3936.5" y="5478.5" width="1745" height="912" stroke="#4472C4" stroke-width="6.875" stroke-linejoin="round" stroke-miterlimit="10" stroke-dasharray="55 20.625" fill="none"/><rect x="3305.5" y="6340.5" width="469" height="439" stroke="#000000" stroke-width="4.58333" stroke-miterlimit="8" fill="#FBE5C8"/><text font-family="Times New Roman,Times New Roman_MSFontService,sans-serif" font-weight="400" font-size="110" transform="matrix(1 0 0 1 3374.48 6533)">Bottom </text><text font-family="Times New Roman,Times New Roman_MSFontService,sans-serif" font-weight="400" font-size="110" transform="matrix(1 0 0 1 3356.14 6665)">Encoder</text><rect x="4032.5" y="5890.5" width="752" height="322" stroke="#000000" stroke-width="4.58333" stroke-miterlimit="8" fill="#FBE5C8"/><text font-family="Times New Roman,Times New Roman_MSFontService,sans-serif" font-weight="400" font-size="110" transform="matrix(1 0 0 1 4154.76 6025)">Granularity </text><text font-family="Times New Roman,Times New Roman_MSFontService,sans-serif" font-weight="400" font-size="110" transform="matrix(1 0 0 1 4228.1 6157)">Jittering</text><rect x="4950.5" y="5874.5" width="663" height="412" stroke="#000000" stroke-width="4.58333" stroke-miterlimit="8" fill="#FBE5C8"/><text font-family="Times New Roman,Times New Roman_MSFontService,sans-serif" font-weight="400" font-size="110" transform="matrix(1 0 0 1 5086.12 5988)">Seasonal </text><text font-family="Times New Roman,Times New Roman_MSFontService,sans-serif" font-weight="400" font-size="110" transform="matrix(1 0 0 1 5116.78 6120)">Feature </text><text font-family="Times New Roman,Times New Roman_MSFontService,sans-serif" font-weight="400" font-size="110" transform="matrix(1 0 0 1 5000.75 6252)">Disentangler</text><path d="M0-1.14583 1509.02-1.14583 1509.02 250.553 1506.73 250.553 1506.73 0 1507.87 1.14583 0 1.14583ZM1521.62 245.969 1507.87 273.469 1494.12 245.969Z" transform="matrix(1 0 0 -1 3774 6559.47)"/><rect x="4001.5" y="6952.5" width="1106" height="412" stroke="#4472C4" stroke-width="6.875" stroke-miterlimit="8" stroke-dasharray="27.5 20.625" fill="#FFFFFF"/><text font-family="Times New Roman,Times New Roman_MSFontService,sans-serif" font-weight="700" font-size="110" transform="matrix(1 0 0 1 4045.86 7132)">Event Representation </text><text font-family="Times New Roman,Times New Roman_MSFontService,sans-serif" font-weight="700" font-size="110" transform="matrix(1 0 0 1 4194.69 7264)">Learning block</text><rect x="5884.5" y="5631.5" width="793" height="2112" stroke="#4472C4" stroke-width="6.875" stroke-miterlimit="8" stroke-dasharray="27.5 20.625" fill="#FFFFFF"/><text font-family="Times New Roman,Times New Roman_MSFontService,sans-serif" font-weight="700" font-size="110" transform="matrix(1 0 0 1 5924.18 6661)">Representation </text><text font-family="Times New Roman,Times New Roman_MSFontService,sans-serif" font-weight="700" font-size="110" transform="matrix(1 0 0 1 5979.62 6793)">Fusion block</text><path d="M5107 7156.85 5861.49 7156.85 5861.49 7159.15 5107 7159.15ZM5856.9 7144.25 5884.4 7158 5856.9 7171.75Z"/><path d="M5613 6078.85 5861.34 6078.85 5861.34 6081.15 5613 6081.15ZM5856.76 6066.25 5884.26 6080 5856.76 6093.75Z"/><path d="M3774 6557.85 5861.46 6557.85 5861.46 6560.15 3774 6560.15ZM5856.88 6545.25 5884.38 6559 5856.88 6572.75Z"/><path d="M6112.5 5264.83C6112.5 5233.17 6138.17 5207.5 6169.83 5207.5L6620.17 5207.5C6651.83 5207.5 6677.5 5233.17 6677.5 5264.83L6677.5 5494.17C6677.5 5525.83 6651.83 5551.5 6620.17 5551.5L6169.83 5551.5C6138.17 5551.5 6112.5 5525.83 6112.5 5494.17Z" stroke="#FF7D86" stroke-width="6.875" stroke-miterlimit="8" stroke-dasharray="27.5 20.625" fill="#FFFFFF" fill-rule="evenodd"/><path d="M6812.5 6574.17C6812.5 6542.87 6837.87 6517.5 6869.17 6517.5L7320.83 6517.5C7352.13 6517.5 7377.5 6542.87 7377.5 6574.17L7377.5 6800.83C7377.5 6832.13 7352.13 6857.5 7320.83 6857.5L6869.17 6857.5C6837.87 6857.5 6812.5 6832.13 6812.5 6800.83Z" stroke="#FFC000" stroke-width="6.875" stroke-miterlimit="8" stroke-dasharray="27.5 20.625" fill="#FFFFFF" fill-rule="evenodd"/><rect x="6142" y="5219" width="505" height="300" fill="#FFFFFF"/><text font-family="Times New Roman,Times New Roman_MSFontService,sans-serif" font-weight="700" font-size="110" transform="matrix(1 0 0 1 6174.7 5341)">Encoder </text><text font-family="Times New Roman,Times New Roman_MSFontService,sans-serif" font-weight="700" font-size="110" transform="matrix(1 0 0 1 6174.7 5473)">Network</text><rect x="6840" y="6538" width="485" height="300" fill="#FFFFFF"/><text font-family="Times New Roman,Times New Roman_MSFontService,sans-serif" font-weight="700" font-size="110" transform="matrix(1 0 0 1 6873.07 6661)">Decoder </text><text font-family="Times New Roman,Times New Roman_MSFontService,sans-serif" font-weight="700" font-size="110" transform="matrix(1 0 0 1 6873.07 6793)">Network</text><path d="M5438.2 5027 5438.2 5343.92 3539 5343.92 3540.15 5342.77 3540.15 6316.58 3537.85 6316.58 3537.85 5341.63 5437.06 5341.63 5435.91 5342.77 5435.91 5027ZM3552.75 6311.99 3539 6339.49 3525.25 6311.99Z"/><path d="M3502.5 6814.5 3502.5 7998.55" stroke="#ED7D31" stroke-width="6.875" stroke-miterlimit="8" stroke-dasharray="55 20.625 6.875 20.625 6.875 20.625" fill="none" fill-rule="evenodd"/><text font-family="Times New Roman,Times New Roman_MSFontService,sans-serif" font-weight="400" font-size="110" transform="matrix(1 0 0 1 3724.91 5275)">Excluded from gradient propagation</text><path d="M0.000830099-1.14583 112.086-1.06463 112.084 1.22703-0.000830099 1.14583ZM107.512-13.6721 135.002 0.0978018 107.492 13.8279Z" transform="matrix(1 0 0 -1 6677 6687.1)"/><path d="M6677 5377.85 7004.77 5377.85 7004.77 6485.3 7002.48 6485.3 7002.48 5379 7003.62 5380.15 6677 5380.15ZM7017.37 6480.72 7003.62 6508.22 6989.87 6480.72Z"/><text font-family="Times New Roman,Times New Roman_MSFontService,sans-serif" font-style="italic" font-weight="400" font-size="110" transform="matrix(1 0 0 1 3547.36 6965)">T</text></g></svg>